<svg xmlns="http://www.w3.org/2000/svg" width="20" height="20" viewBox="0 0 20 20">
  <defs>
    <style>
      .cls-1 {
        fill: #b2b6bc;
        fill-rule: evenodd;
        opacity: 0.5;
      }
    </style>
  </defs>
  <path id="pinterest" class="cls-1" d="M811,155a10,10,0,0,0-4.012,19.158,8.886,8.886,0,0,1,.173-2.3c0.2-.811,1.286-5.448,1.286-5.448a3.849,3.849,0,0,1-.319-1.582c0-1.483.859-2.589,1.927-2.589a1.339,1.339,0,0,1,1.349,1.5,21.426,21.426,0,0,1-.883,3.548,1.548,1.548,0,0,0,1.578,1.926c1.894,0,3.17-2.434,3.17-5.316,0-2.191-1.476-3.832-4.159-3.832a4.734,4.734,0,0,0-4.921,4.789,2.889,2.889,0,0,0,.659,1.961,0.484,0.484,0,0,1,.144.557c-0.048.184-.159,0.627-0.2,0.8a0.344,0.344,0,0,1-.5.251c-1.4-.57-2.047-2.1-2.047-3.82,0-2.841,2.395-6.246,7.142-6.246,3.817,0,6.329,2.761,6.329,5.727,0,3.923-2.181,6.853-5.394,6.853a2.867,2.867,0,0,1-2.441-1.246s-0.581,2.3-.7,2.748a8.394,8.394,0,0,1-1,2.143A10,10,0,1,0,811,155Z" transform="translate(-801 -155)"/>
</svg>
