<svg xmlns="http://www.w3.org/2000/svg" width="15" height="15" viewBox="0 0 15 15">
  <defs>
    <style>
      .cls-1 {
        fill: #b2b6bc;
        fill-rule: evenodd;
        opacity: 0.5;
      }
    </style>
  </defs>
  <path id="linkedin" class="cls-1" d="M844.4,172.012V161.889h-3.213v10.123H844.4Zm-1.606-11.5a1.787,1.787,0,1,0-.024,0H842.8Zm3.387,11.5H849.4v-5.653a2.37,2.37,0,0,1,.106-0.82,1.768,1.768,0,0,1,1.649-1.232c1.164,0,1.631.928,1.631,2.289v5.416H856v-5.8c0-3.11-1.587-4.556-3.7-4.556a3.187,3.187,0,0,0-2.921,1.7H849.4v-1.467h-3.217c0.043,0.95,0,10.123,0,10.123h0Z" transform="translate(-841 -157)"/>
</svg>
