<svg xmlns="http://www.w3.org/2000/svg" width="19" height="16" viewBox="0 0 19 16">
  <defs>
    <style>
      .cls-1 {
        fill: #b2b6bc;
        fill-rule: evenodd;
        opacity: 0.5;
      }
    </style>
  </defs>
  <path id="twitter" class="cls-1" d="M740.013,158.893a7.583,7.583,0,0,1-2.24.637,4.034,4.034,0,0,0,1.715-2.236,7.644,7.644,0,0,1-2.477.981A3.836,3.836,0,0,0,734.163,157a3.973,3.973,0,0,0-3.9,4.04,4.233,4.233,0,0,0,.1.921,10.963,10.963,0,0,1-8.042-4.221,4.134,4.134,0,0,0-.526,2.031,4.077,4.077,0,0,0,1.734,3.362,3.775,3.775,0,0,1-1.766-.506v0.052a4.009,4.009,0,0,0,3.129,3.961,3.8,3.8,0,0,1-1.028.142,3.681,3.681,0,0,1-.733-0.074,3.921,3.921,0,0,0,3.644,2.806,7.66,7.66,0,0,1-4.846,1.729,7.516,7.516,0,0,1-.93-0.056A10.765,10.765,0,0,0,726.979,173c7.174,0,11.1-6.155,11.1-11.494q0-.263-0.012-0.522A8.057,8.057,0,0,0,740.013,158.893Z" transform="translate(-721 -157)"/>
</svg>
